<?xml version="1.0" encoding="UTF-8" standalone="no"?>
<!-- Created with Inkscape (http://www.inkscape.org/) -->

<svg
   width="373.46597mm"
   height="84.5187mm"
   viewBox="0 0 373.46597 84.518699"
   version="1.1"
   id="svg5"
   inkscape:version="1.1.2 (b8e25be833, 2022-02-05)"
   sodipodi:docname="logo.svg"
   xmlns:inkscape="http://www.inkscape.org/namespaces/inkscape"
   xmlns:sodipodi="http://sodipodi.sourceforge.net/DTD/sodipodi-0.dtd"
   xmlns="http://www.w3.org/2000/svg"
   xmlns:svg="http://www.w3.org/2000/svg">
  <sodipodi:namedview
     id="namedview7"
     pagecolor="#505050"
     bordercolor="#eeeeee"
     borderopacity="1"
     inkscape:pageshadow="0"
     inkscape:pageopacity="0"
     inkscape:pagecheckerboard="0"
     inkscape:document-units="mm"
     showgrid="false"
     inkscape:zoom="0.50268269"
     inkscape:cx="609.72857"
     inkscape:cy="184.0127"
     inkscape:window-width="1920"
     inkscape:window-height="991"
     inkscape:window-x="-9"
     inkscape:window-y="-9"
     inkscape:window-maximized="1"
     inkscape:current-layer="layer1"
     fit-margin-top="0"
     fit-margin-left="0"
     fit-margin-right="0"
     fit-margin-bottom="0" />
  <defs
     id="defs2" />
  <g
     inkscape:label="Layer 1"
     inkscape:groupmode="layer"
     id="layer1"
     transform="translate(-201.55488,-106.24065)">
    <g
       style="fill:#4fd1c5;fill-opacity:1"
       id="g832"
       transform="matrix(0.19980921,0,0,0.19980921,201.55488,97.448648)">
      <path
         d="m 509.807,159.545 c 0.016,-0.026 0.036,-0.047 0.052,-0.073 0.033,-0.053 0.058,-0.108 0.09,-0.162 0.078,-0.131 0.153,-0.263 0.222,-0.399 0.047,-0.091 0.09,-0.183 0.132,-0.275 0.06,-0.129 0.116,-0.259 0.169,-0.391 0.042,-0.105 0.08,-0.211 0.116,-0.317 0.041,-0.121 0.081,-0.242 0.116,-0.366 0.035,-0.122 0.066,-0.244 0.094,-0.367 0.026,-0.111 0.05,-0.223 0.071,-0.336 0.025,-0.138 0.046,-0.275 0.063,-0.413 0.013,-0.103 0.026,-0.207 0.034,-0.312 0.013,-0.149 0.019,-0.298 0.023,-0.447 0.002,-0.064 0.01,-0.126 0.01,-0.19 0,-0.038 -0.005,-0.076 -0.006,-0.114 -0.002,-0.141 -0.011,-0.282 -0.021,-0.423 -0.008,-0.114 -0.015,-0.228 -0.029,-0.341 -0.014,-0.116 -0.034,-0.231 -0.053,-0.346 -0.022,-0.132 -0.043,-0.265 -0.071,-0.394 -0.021,-0.094 -0.048,-0.187 -0.072,-0.28 -0.038,-0.144 -0.075,-0.288 -0.12,-0.428 -0.028,-0.086 -0.062,-0.17 -0.093,-0.255 -0.052,-0.141 -0.102,-0.281 -0.162,-0.418 -0.041,-0.095 -0.089,-0.186 -0.135,-0.279 -0.059,-0.12 -0.115,-0.241 -0.18,-0.358 -0.062,-0.112 -0.131,-0.219 -0.199,-0.328 -0.058,-0.093 -0.113,-0.187 -0.175,-0.276 -0.082,-0.119 -0.172,-0.234 -0.261,-0.349 -0.058,-0.075 -0.113,-0.151 -0.174,-0.224 -0.093,-0.111 -0.193,-0.216 -0.293,-0.322 -0.068,-0.072 -0.134,-0.146 -0.205,-0.216 -0.093,-0.091 -0.192,-0.177 -0.29,-0.264 -0.09,-0.08 -0.18,-0.16 -0.274,-0.235 -0.086,-0.069 -0.176,-0.133 -0.265,-0.198 -0.117,-0.086 -0.234,-0.169 -0.356,-0.248 -0.031,-0.02 -0.059,-0.044 -0.091,-0.063 l -64,-40 c -0.044,-0.027 -0.089,-0.048 -0.133,-0.074 -0.089,-0.053 -0.176,-0.107 -0.267,-0.156 -0.056,-0.03 -0.112,-0.058 -0.168,-0.086 -0.09,-0.046 -0.181,-0.088 -0.273,-0.13 -0.073,-0.034 -0.145,-0.069 -0.22,-0.101 -0.052,-0.022 -0.104,-0.041 -0.156,-0.061 -0.122,-0.048 -0.244,-0.092 -0.367,-0.133 -0.045,-0.015 -0.087,-0.035 -0.133,-0.049 -0.014,-0.004 -0.028,-0.007 -0.041,-0.011 -0.044,-0.013 -0.088,-0.024 -0.132,-0.037 -0.143,-0.042 -0.286,-0.077 -0.43,-0.11 -0.055,-0.012 -0.109,-0.029 -0.164,-0.04 -0.036,-0.007 -0.072,-0.01 -0.108,-0.017 -0.146,-0.027 -0.292,-0.049 -0.439,-0.068 -0.105,-0.013 -0.21,-0.026 -0.316,-0.035 -0.129,-0.011 -0.257,-0.017 -0.386,-0.021 -0.123,-0.004 -0.246,-0.007 -0.368,-0.005 -0.112,0.002 -0.223,0.008 -0.335,0.015 -0.044,0.003 -0.088,0.003 -0.132,0.006 -0.029,0.002 -0.058,10e-4 -0.087,0.004 -0.061,0.006 -0.121,0.017 -0.181,0.024 -0.103,0.012 -0.206,0.028 -0.309,0.044 -0.034,0.005 -0.068,0.009 -0.101,0.015 -0.046,0.008 -0.092,0.011 -0.137,0.02 -0.056,0.011 -0.11,0.027 -0.165,0.039 -0.103,0.022 -0.205,0.049 -0.308,0.075 -0.128,0.033 -0.255,0.067 -0.38,0.107 -0.11,0.035 -0.218,0.074 -0.326,0.114 -0.08,0.029 -0.161,0.054 -0.239,0.086 -0.033,0.013 -0.065,0.031 -0.098,0.045 -0.117,0.049 -0.231,0.104 -0.345,0.159 -0.078,0.038 -0.158,0.073 -0.235,0.113 -0.008,0.004 -0.017,0.007 -0.025,0.012 l -114.566,61.102 -68.1,-83.234 c -0.003,-0.004 -0.007,-0.007 -0.01,-0.011 -0.021,-0.026 -0.043,-0.051 -0.065,-0.077 -0.053,-0.063 -0.111,-0.12 -0.166,-0.181 -0.106,-0.118 -0.212,-0.237 -0.326,-0.348 -0.066,-0.065 -0.139,-0.124 -0.208,-0.186 -0.109,-0.099 -0.216,-0.199 -0.331,-0.292 -0.109,-0.087 -0.225,-0.166 -0.338,-0.248 -0.009,-0.006 -0.017,-0.013 -0.026,-0.019 -0.075,-0.053 -0.147,-0.111 -0.224,-0.162 -0.115,-0.076 -0.238,-0.142 -0.358,-0.212 -0.091,-0.053 -0.18,-0.11 -0.273,-0.159 -0.112,-0.059 -0.23,-0.108 -0.346,-0.161 -0.107,-0.049 -0.212,-0.103 -0.321,-0.147 -0.104,-0.042 -0.212,-0.075 -0.319,-0.112 -0.127,-0.045 -0.253,-0.092 -0.382,-0.13 -0.016,-0.005 -0.032,-0.012 -0.048,-0.016 -0.114,-0.033 -0.228,-0.053 -0.342,-0.08 -0.103,-0.024 -0.205,-0.052 -0.31,-0.072 -0.044,-0.008 -0.087,-0.018 -0.131,-0.026 L 24.818,44.114 c -0.074,-0.013 -0.147,-0.017 -0.221,-0.028 -0.135,-0.02 -0.269,-0.039 -0.404,-0.052 -0.124,-0.012 -0.246,-0.018 -0.369,-0.023 -0.117,-0.005 -0.234,-0.009 -0.351,-0.009 -0.134,0 -0.267,0.005 -0.4,0.013 -0.108,0.006 -0.217,0.014 -0.325,0.024 -0.134,0.013 -0.267,0.031 -0.399,0.052 -0.11,0.017 -0.219,0.036 -0.328,0.057 -0.126,0.025 -0.25,0.054 -0.374,0.086 -0.115,0.029 -0.23,0.061 -0.344,0.096 -0.115,0.035 -0.227,0.073 -0.34,0.114 -0.119,0.043 -0.236,0.088 -0.353,0.137 -0.108,0.045 -0.213,0.094 -0.319,0.144 -0.114,0.054 -0.227,0.11 -0.339,0.17 -0.109,0.059 -0.215,0.121 -0.32,0.185 -0.101,0.061 -0.202,0.123 -0.301,0.189 -0.116,0.078 -0.228,0.16 -0.339,0.244 -0.058,0.044 -0.12,0.082 -0.177,0.128 -0.027,0.021 -0.049,0.045 -0.076,0.067 -0.112,0.092 -0.219,0.19 -0.326,0.289 -0.077,0.071 -0.156,0.141 -0.23,0.215 -0.096,0.096 -0.185,0.198 -0.276,0.299 -0.075,0.084 -0.152,0.166 -0.222,0.252 -0.08,0.098 -0.154,0.202 -0.229,0.305 -0.07,0.095 -0.142,0.189 -0.207,0.286 -0.068,0.103 -0.129,0.21 -0.192,0.317 -0.062,0.104 -0.126,0.206 -0.182,0.312 -0.056,0.106 -0.105,0.217 -0.156,0.326 -0.053,0.113 -0.108,0.225 -0.155,0.34 -0.044,0.106 -0.08,0.216 -0.119,0.325 -0.044,0.124 -0.09,0.248 -0.127,0.374 -0.031,0.104 -0.056,0.212 -0.083,0.319 -0.034,0.136 -0.068,0.271 -0.094,0.408 -0.007,0.035 -0.018,0.069 -0.024,0.104 -0.014,0.076 -0.018,0.151 -0.029,0.227 -0.019,0.132 -0.038,0.264 -0.05,0.397 -0.012,0.124 -0.018,0.247 -0.023,0.37 -0.005,0.118 -0.009,0.236 -0.009,0.354 0,0.132 0.006,0.263 0.013,0.394 0.006,0.111 0.014,0.221 0.025,0.332 0.013,0.132 0.031,0.262 0.051,0.392 0.017,0.112 0.037,0.224 0.059,0.335 0.025,0.124 0.053,0.246 0.085,0.368 0.03,0.117 0.062,0.233 0.097,0.349 0.035,0.113 0.073,0.225 0.113,0.336 0.043,0.119 0.088,0.238 0.137,0.355 0.045,0.107 0.093,0.213 0.143,0.318 0.054,0.114 0.11,0.227 0.17,0.339 0.058,0.109 0.121,0.214 0.184,0.32 0.061,0.102 0.123,0.203 0.19,0.302 0.077,0.115 0.159,0.226 0.242,0.336 0.044,0.059 0.082,0.121 0.129,0.179 l 47.852,59.815 H 7.5 c -0.068,0 -0.133,0.008 -0.2,0.01 -0.138,0.004 -0.276,0.01 -0.414,0.021 -0.121,0.01 -0.241,0.024 -0.36,0.039 -0.117,0.015 -0.234,0.033 -0.35,0.053 -0.132,0.023 -0.262,0.051 -0.391,0.081 -0.104,0.024 -0.207,0.051 -0.31,0.08 -0.133,0.037 -0.263,0.077 -0.393,0.122 -0.101,0.034 -0.201,0.071 -0.301,0.11 -0.123,0.048 -0.244,0.098 -0.363,0.152 -0.106,0.048 -0.211,0.099 -0.315,0.152 -0.107,0.055 -0.213,0.111 -0.317,0.171 -0.111,0.063 -0.22,0.13 -0.328,0.199 -0.093,0.06 -0.184,0.121 -0.274,0.184 -0.11,0.077 -0.217,0.158 -0.323,0.242 -0.086,0.068 -0.169,0.137 -0.251,0.208 -0.099,0.086 -0.197,0.174 -0.292,0.265 -0.087,0.083 -0.17,0.168 -0.253,0.255 -0.082,0.086 -0.162,0.174 -0.24,0.265 -0.091,0.106 -0.178,0.215 -0.263,0.326 -0.041,0.053 -0.085,0.1 -0.125,0.154 -0.023,0.032 -0.041,0.065 -0.063,0.097 -0.086,0.122 -0.165,0.247 -0.244,0.373 -0.053,0.086 -0.108,0.172 -0.157,0.259 -0.069,0.123 -0.132,0.249 -0.195,0.376 -0.048,0.097 -0.097,0.194 -0.141,0.292 -0.052,0.118 -0.097,0.239 -0.143,0.36 -0.042,0.111 -0.086,0.222 -0.123,0.335 -0.036,0.111 -0.066,0.225 -0.097,0.339 -0.035,0.126 -0.07,0.252 -0.097,0.379 -0.023,0.105 -0.039,0.212 -0.058,0.318 -0.024,0.139 -0.048,0.278 -0.064,0.418 -0.012,0.101 -0.018,0.203 -0.025,0.306 -0.011,0.147 -0.02,0.295 -0.022,0.442 C 0.005,123.419 0,123.457 0,123.497 c 0,0.068 0.008,0.133 0.01,0.2 0.004,0.138 0.009,0.276 0.021,0.414 0.01,0.121 0.024,0.24 0.039,0.36 0.015,0.118 0.033,0.235 0.054,0.351 0.023,0.131 0.051,0.261 0.081,0.39 0.025,0.105 0.051,0.209 0.08,0.312 0.037,0.132 0.077,0.261 0.121,0.39 0.035,0.103 0.072,0.204 0.112,0.305 0.047,0.121 0.097,0.241 0.15,0.359 0.049,0.108 0.101,0.215 0.154,0.321 0.054,0.105 0.109,0.209 0.167,0.311 0.064,0.113 0.133,0.224 0.203,0.334 0.058,0.091 0.118,0.181 0.18,0.269 0.078,0.111 0.16,0.22 0.245,0.327 0.067,0.084 0.135,0.167 0.205,0.248 0.086,0.1 0.175,0.198 0.268,0.294 0.082,0.086 0.167,0.169 0.254,0.251 0.087,0.082 0.174,0.163 0.266,0.242 0.106,0.091 0.215,0.177 0.325,0.262 0.053,0.041 0.1,0.085 0.155,0.125 l 172.304,125.312 -31.29,203.386 c -0.004,0.024 -0.007,0.048 -0.011,0.073 l -0.004,0.024 c -0.005,0.031 -0.005,0.061 -0.009,0.092 -0.03,0.213 -0.054,0.426 -0.066,0.638 -0.005,0.084 -0.002,0.166 -0.004,0.249 -0.003,0.159 -0.007,0.318 -0.001,0.476 0.005,0.124 0.019,0.245 0.03,0.367 0.011,0.116 0.018,0.232 0.034,0.347 0.02,0.143 0.049,0.284 0.077,0.425 0.019,0.094 0.034,0.189 0.057,0.282 0.034,0.144 0.077,0.284 0.119,0.425 0.027,0.091 0.052,0.182 0.083,0.272 0.045,0.13 0.097,0.257 0.149,0.385 0.04,0.099 0.078,0.199 0.123,0.296 0.05,0.109 0.106,0.215 0.161,0.321 0.058,0.112 0.114,0.224 0.177,0.333 0.051,0.088 0.108,0.172 0.162,0.258 0.076,0.12 0.152,0.24 0.236,0.356 0.053,0.073 0.11,0.143 0.165,0.214 0.093,0.12 0.186,0.239 0.287,0.354 0.06,0.068 0.125,0.132 0.187,0.199 0.102,0.108 0.203,0.216 0.312,0.318 0.081,0.076 0.168,0.147 0.253,0.22 0.096,0.083 0.191,0.167 0.292,0.245 0.123,0.096 0.253,0.183 0.383,0.271 0.071,0.048 0.138,0.099 0.21,0.144 0.181,0.114 0.369,0.218 0.561,0.317 0.027,0.014 0.051,0.03 0.078,0.044 0.003,0.001 0.006,0.002 0.009,0.004 0.253,0.126 0.514,0.238 0.783,0.336 0.067,0.024 0.135,0.041 0.202,0.063 0.184,0.061 0.37,0.119 0.561,0.166 0.126,0.031 0.252,0.053 0.378,0.078 0.094,0.018 0.185,0.043 0.281,0.058 0.032,0.005 0.063,0.003 0.095,0.007 0.347,0.049 0.694,0.082 1.04,0.082 0.004,0 0.008,-0.001 0.011,-0.001 0.001,0 0.003,0 0.004,0 0.31,0 0.615,-0.026 0.918,-0.064 0.06,-0.008 0.119,-0.015 0.179,-0.024 0.619,-0.092 1.217,-0.261 1.783,-0.498 0.055,-0.023 0.109,-0.045 0.163,-0.069 0.274,-0.122 0.541,-0.258 0.798,-0.412 0.047,-0.028 0.091,-0.06 0.137,-0.089 0.216,-0.136 0.424,-0.283 0.625,-0.439 0.06,-0.046 0.12,-0.091 0.178,-0.139 0.223,-0.185 0.435,-0.384 0.636,-0.595 0.05,-0.053 0.098,-0.108 0.147,-0.162 0.202,-0.224 0.394,-0.458 0.569,-0.706 0.005,-0.008 0.012,-0.015 0.017,-0.022 0.189,-0.272 0.356,-0.56 0.509,-0.858 0.012,-0.024 0.029,-0.045 0.041,-0.069 L 212.99,353.289 394.491,274.376 c 0.049,-0.021 0.093,-0.048 0.141,-0.07 0.145,-0.067 0.288,-0.137 0.429,-0.213 0.013,-0.007 0.027,-0.013 0.041,-0.02 0.023,-0.012 0.046,-0.021 0.069,-0.034 0.052,-0.029 0.1,-0.064 0.152,-0.094 0.113,-0.067 0.225,-0.137 0.334,-0.21 0.072,-0.048 0.145,-0.093 0.215,-0.143 0.027,-0.019 0.052,-0.041 0.079,-0.061 0.082,-0.06 0.162,-0.123 0.241,-0.187 0.019,-0.015 0.041,-0.025 0.06,-0.041 0.019,-0.016 0.036,-0.034 0.055,-0.05 0.07,-0.058 0.137,-0.117 0.204,-0.178 0.066,-0.06 0.13,-0.122 0.194,-0.183 0.004,-0.004 0.008,-0.007 0.012,-0.011 0.028,-0.027 0.058,-0.05 0.086,-0.078 0.021,-0.021 0.04,-0.043 0.061,-0.064 0.05,-0.052 0.099,-0.104 0.148,-0.157 0.062,-0.068 0.121,-0.138 0.181,-0.208 0.058,-0.067 0.118,-0.133 0.173,-0.202 0.032,-0.04 0.062,-0.08 0.093,-0.12 0.025,-0.032 0.05,-0.064 0.074,-0.096 0.026,-0.036 0.049,-0.074 0.075,-0.11 0.008,-0.011 0.015,-0.023 0.023,-0.034 0.058,-0.082 0.118,-0.163 0.172,-0.247 0.017,-0.027 0.034,-0.053 0.051,-0.08 0.058,-0.093 0.111,-0.189 0.165,-0.284 0.051,-0.09 0.104,-0.178 0.151,-0.269 0.002,-0.004 0.005,-0.008 0.007,-0.013 0.007,-0.014 0.014,-0.028 0.021,-0.042 0.054,-0.107 0.102,-0.219 0.151,-0.329 0.04,-0.09 0.083,-0.179 0.119,-0.271 0.006,-0.015 0.013,-0.03 0.019,-0.045 0.046,-0.118 0.084,-0.239 0.124,-0.36 0.006,-0.017 0.012,-0.034 0.018,-0.051 0.007,-0.022 0.019,-0.042 0.026,-0.064 l 0.03,-0.096 c 10e-4,-0.002 10e-4,-0.004 0.002,-0.006 l 33.681,-106.656 h 71.113 c 0.005,0 0.01,0.001 0.014,0.001 0.017,0 0.034,-0.003 0.051,-0.003 0.277,-0.002 0.549,-0.02 0.818,-0.051 0.076,-0.009 0.151,-0.023 0.226,-0.034 0.218,-0.032 0.432,-0.071 0.643,-0.121 0.078,-0.018 0.155,-0.039 0.232,-0.06 0.216,-0.058 0.427,-0.126 0.634,-0.203 0.065,-0.024 0.131,-0.046 0.196,-0.072 0.269,-0.108 0.532,-0.227 0.785,-0.364 0.006,-0.003 0.012,-0.008 0.018,-0.011 0.239,-0.131 0.468,-0.277 0.691,-0.433 0.084,-0.059 0.165,-0.122 0.246,-0.184 0.149,-0.113 0.293,-0.231 0.432,-0.354 0.08,-0.071 0.16,-0.141 0.237,-0.216 0.185,-0.178 0.361,-0.364 0.526,-0.56 0.019,-0.022 0.039,-0.041 0.058,-0.063 0.188,-0.232 0.358,-0.476 0.519,-0.726 z m -82.993,-28.782 -38.29,121.253 -57.435,-70.199 z M 41.816,62.386 l 195.301,34.875 -55.8,139.5 z M 374.591,258.674 194.256,244.802 249.744,106.083 Z M 212.629,337.089 193.3,259.773 360.818,272.659 Z m -13.078,9.535 -33.364,66.728 19.065,-123.924 z M 142.792,212.618 30.564,130.997 h 46.932 z m 300.944,-85.629 33.613,21.008 h -40.247 z"
         id="path824"
         style="fill:#4fd1c5;fill-opacity:1" />
    </g>
    <text
       xml:space="preserve"
       style="font-style:normal;font-weight:normal;font-size:60.6485px;line-height:1.25;font-family:sans-serif;fill:#4fd1c5;fill-opacity:1;stroke:none;stroke-width:1.51621"
       x="323.08698"
       y="169.72697"
       id="text1386"><tspan
         sodipodi:role="line"
         id="tspan1384"
         style="font-style:normal;font-variant:normal;font-weight:normal;font-stretch:normal;font-size:60.6485px;font-family:'Montserrat Alternates';-inkscape-font-specification:'Montserrat Alternates, Normal';font-variant-ligatures:normal;font-variant-caps:normal;font-variant-numeric:normal;font-variant-east-asian:normal;fill:#4fd1c5;fill-opacity:1;stroke-width:1.51621"
         x="323.08698"
         y="169.72697">KIBORG</tspan></text>
  </g>
</svg>
